Coordinates
version=1
nRows=10
nColumns=32
inDegrees=yes

Units are S.I. units (second, meters, Newtons, ...)
Angles are in degrees.
endheader
time	lower_torso_RX	lower_torso_RY	lower_torso_RZ	lower_torso_TX	lower_torso_TY	lower_torso_TZ	lumbar_pitch	lumbar_roll	lumbar_yaw	hip_flex_r	hip_add_r	hip_rot_r	knee_flex_r	tib_pat_r_r3	tib_pat_r_tx	tib_pat_r_ty	tib_pat_r_tz	ankle_flex_r	subt_angle_r	toe_angle_r	hip_flex_l	hip_add_l	hip_rot_l	knee_flex_l	tib_pat_l_r3	tib_pat_l_tx	tib_pat_l_ty	tib_pat_l_tz	ankle_flex_l	subt_angle_l	toe_angle_l
3.45000000000000020000	-4.87742700999999990000	17.89010678000000000000	-11.99975645000000000000	-0.32624648000000001000	0.67513692999999997000	-0.25041934999999999000	13.52064345000000000000	6.54234045000000020000	-0.90091933999999996000	24.70964564000000200000	9.17120607000000020000	11.73855704000000000000	34.29926738999999700000	9.81269239380839230000	0.04048359043484848300	-0.01951763207514823500	0.00219691669626343640	12.82604669999999900000	-7.65289912999999980000	0.00000000000000000000	23.04357377999999900000	-4.25699352999999990000	22.51331486999999900000	65.97222012999999700000	15.07183409156782300000	0.03268017257841793200	-0.01810387963436652800	-0.00214957326773124700	5.96350926000000040000	19.95201868999999900000	0.00000000000000000000
3.46000000000000000000	-4.98900062999999960000	17.53731427000000000000	-12.09307548000000000000	-0.32077887999999999000	0.67516292000000000000	-0.25055728999999999000	13.37918849000000100000	6.85550661999999990000	-0.44332389999999999000	24.15394176999999900000	9.35667778000000010000	11.94707049000000000000	33.95415259000000000000	9.73291050092483980000	0.04054898356675749900	-0.01953018602606133200	0.00219691669626343640	13.05567450000000000000	-7.34198827999999980000	0.00000000000000000000	24.98547071000000100000	-3.60776393000000000000	22.46663827000000100000	67.26393362000000300000	15.21505384487692300000	0.03235973974592253700	-0.01807141221320611800	-0.00214957326773124700	6.62123633000000030000	20.62980142000000000000	0.00000000000000000000
3.47000000000000020000	-5.06985275999999980000	17.24968709999999900000	-12.16579977000000000000	-0.31540160000000000000	0.67511810999999999000	-0.25080259999999999000	13.20601186000000000000	7.15105172999999980000	0.03505242000000000100	23.55136947000000100000	9.49544597000000050000	12.10117542000000100000	33.58680472999999700000	9.64735044105805880000	0.04061826289052041000	-0.01954357472456523200	0.00219691669626343640	13.34414325999999900000	-7.05655379999999970000	0.00000000000000000000	26.95442366000000000000	-3.00390238999999990000	22.31055693000000100000	68.33263427000000000000	15.32993083525933600000	0.03209230243358950100	-0.01804609191257357600	-0.00214957326773124700	7.30351768999999960000	21.14482827000000100000	0.00000000000000000000
3.48000000000000000000	-5.09942717000000020000	17.03588583999999900000	-12.23198110000000000000	-0.31005336000000000000	0.67499580999999997000	-0.25113004999999999000	13.00990911000000100000	7.39201250999999980000	0.52520856000000005000	22.90388507999999800000	9.58086042999999950000	12.21788141000000000000	33.19356698000000000000	9.55502648302292100000	0.04069205012079635300	-0.01955793542587606600	0.00219691669626343640	13.67209017000000100000	-6.83988088999999990000	0.00000000000000000000	28.95171630999999800000	-2.48232554000000020000	21.97996947000000000000	69.15652495999999900000	15.41628013762038300000	0.03188465042606516300	-0.01802765012650481600	-0.00214957326773124700	7.97951525000000040000	21.36660463000000100000	0.00000000000000000000
3.49000000000000020000	-5.07050803000000010000	16.88748641000000100000	-12.30324192000000000000	-0.30465323000000000000	0.67481305999999996000	-0.25151478999999999000	12.80315167999999900000	7.55648518000000010000	1.01822806999999990000	22.21762641000000100000	9.61560356000000030000	12.32028678000000000000	32.77394692000000000000	9.45566653400552680000	0.04077035847855643000	-0.01957329037550366000	0.00219691669626343640	14.01120060000000000000	-6.71599189999999970000	0.00000000000000000000	30.97004412000000100000	-2.06781519000000010000	21.43702126999999900000	69.70409247000000600000	15.47261170240388100000	0.03174591662210507500	-0.01801595910169098700	-0.00214957326773124700	8.60115116999999960000	21.21037357000000200000	0.00000000000000000000
3.50000000000000000000	-4.98909617999999980000	16.77968663000000000000	-12.38937282000000000000	-0.29915863999999998000	0.67459714999999998000	-0.25194140999999998000	12.59929978000000100000	7.63885749000000040000	1.50557323000000000000	21.50380634000000100000	9.61061115999999950000	12.43260570000000000000	32.33065718999999700000	9.34975159141491120000	0.04085260037196725800	-0.01958954408343575200	0.00219691669626343640	14.33108572000000100000	-6.68816170000000020000	0.00000000000000000000	32.99133771999999700000	-1.76473988000000000000	20.67839347000000000000	69.93568433999999500000	15.49618424040913700000	0.03168706294442414500	-0.01801115763284955000	-0.00214957326773124700	9.12333950000000020000	20.64643527999999900000	0.00000000000000000000
3.50999999999999980000	-4.87139949999999990000	16.67877727999999800000	-12.49872013000000100000	-0.29358635000000000000	0.67436547000000002000	-0.25239599000000001000	12.41095503000000000000	7.64761935000000030000	1.97929240000000010000	20.78041474999999800000	9.57985374000000080000	12.57623096000000000000	31.86804596000000000000	9.23817191050599360000	0.04093789445944948100	-0.01960653977955858000	0.00219691669626343640	14.60590730999999900000	-6.74127742000000030000	0.00000000000000000000	34.98592121000000100000	-1.55838535000000000000	19.73608600000000000000	69.80926992000000600000	15.48333575177033500000	0.03171920130978344400	-0.01801376774310797100	-0.00214957326773124700	9.51653036999999990000	19.69711725000000200000	0.00000000000000000000
3.52000000000000000000	-4.73787518999999960000	16.55243048999999900000	-12.63669453000000000000	-0.28798269999999998000	0.67412342000000003000	-0.25286044000000002000	12.24786381999999900000	7.60065388000000030000	2.43222762999999990000	20.06920252999999800000	9.53479742000000030000	12.76662262000000000000	31.39103489000000000000	9.12199003616711050000	0.04102527116641464800	-0.01962409792667694000	0.00219691669626343640	14.81887560000000000000	-6.84683005000000030000	0.00000000000000000000	36.91753756000000000000	-1.42257452999999990000	18.67111294000000000000	69.28768214000000100000	15.42984971471727100000	0.03185147313555748000	-0.01802480735927760100	-0.00214957326773124700	9.77039403999999930000	18.42375347000000100000	0.00000000000000000000
3.52999999999999980000	-4.60597855999999960000	16.37844820000000100000	-12.80475539999999900000	-0.28237757000000002000	0.67387881000000005000	-0.25332958999999999000	12.11562443000000000000	7.51935948000000030000	2.85831605999999990000	19.38760976000000000000	9.48172725000000050000	13.01061557000000100000	30.90504831000000200000	9.00243469599361750000	0.04111369122090990900	-0.01964201870475774200	0.00219691669626343640	14.96386092999999900000	-6.96932008000000010000	0.00000000000000000000	38.75136855000000200000	-1.32850704000000010000	17.56155873999999900000	68.34576377000000500000	15.33132194723914500000	0.03208900347180729900	-0.01804579037247438400	-0.00214957326773124700	9.89046983999999970000	16.90863673000000100000	0.00000000000000000000
3.54000000000000000000	-4.48542522999999970000	16.15008626999999900000	-13.00082067000000000000	-0.27676993000000000000	0.67365430999999998000	-0.25382000999999998000	12.01506640999999900000	7.42305618999999960000	3.25304672999999990000	18.74224223999999900000	9.42161195000000080000	13.30476668999999900000	30.41543104999999900000	8.88076545590974400000	0.04120215544423164200	-0.01966010353687232600	0.00219691669626343640	15.04466233000000000000	-7.07309599999999960000	0.00000000000000000000	40.45830566000000100000	-1.25074626000000010000	16.48757266999999900000	66.97558628999999500000	15.18349962812378400000	0.03243153329192052100	-0.01807849296771318200	-0.00214957326773124700	9.89086917999999930000	15.23755806000000000000	0.00000000000000000000
